<svg width="40" height="40" viewBox="0 0 40 40" fill="none" xmlns="http://www.w3.org/2000/svg">
<path fill-rule="evenodd" clip-rule="evenodd" d="M6.73872 1.02556C7.97961 0.542704 9.40052 0.212988 11.4799 0.118292C13.5637 0.0220332 14.23 0 19.5345 0C24.8391 0 25.5049 0.0235958 27.5876 0.118292C29.6654 0.211425 31.0856 0.542704 32.3288 1.02556C33.6116 1.5242 34.702 2.19144 35.7874 3.27857C36.8728 4.3657 37.5404 5.45439 38.0404 6.73872C38.5233 7.97961 38.853 9.40036 38.9477 11.4799C39.0424 13.5626 39.0644 14.2284 39.0644 19.533C39.0644 24.8375 39.0424 25.5018 38.9477 27.586C38.8545 29.6654 38.5233 31.0856 38.0404 32.3272C37.5404 33.6116 36.8745 34.702 35.7874 35.7874C34.7003 36.8728 33.6116 37.5404 32.3272 38.0404C31.0856 38.5233 29.6656 38.853 27.586 38.9477C25.5034 39.0439 24.8375 39.066 19.533 39.066C14.2284 39.066 13.5637 39.0424 11.4799 38.9477C9.40052 38.853 7.98196 38.5233 6.73872 38.0404C5.45361 37.5404 4.36554 36.8723 3.27857 35.7874C2.1916 34.7024 1.5242 33.6116 1.02556 32.3272C0.542704 31.0856 0.212988 29.6656 0.118292 27.586C0.0220332 25.5034 0 24.8375 0 19.533C0 14.2284 0.0220332 13.5626 0.118292 11.4799C0.212988 9.40052 0.542704 7.98039 1.02556 6.73872C1.5242 5.45361 2.19144 4.36398 3.27857 3.27857C4.3657 2.19316 5.45361 1.5242 6.73872 1.02556ZM11.6417 35.4324C9.73727 35.3456 8.70218 35.0284 8.0143 34.7604C7.10235 34.4054 6.45166 33.9825 5.76754 33.2994C5.08342 32.6162 4.65994 31.9661 4.30648 31.0542C4.03833 30.3666 3.72111 29.3312 3.63454 27.4268C3.53984 25.3679 3.52094 24.7494 3.52094 19.5331C3.52094 14.3169 3.54141 13.7001 3.63454 11.6395C3.72127 9.73508 4.04083 8.70171 4.30648 8.01212C4.66151 7.10016 5.08436 6.44948 5.76754 5.76535C6.45073 5.08123 7.10079 4.65776 8.0143 4.30429C8.70186 4.03614 9.73727 3.71892 11.6417 3.63235C13.7006 3.53766 14.3191 3.51875 19.533 3.51875C24.7469 3.51875 25.366 3.53922 27.4266 3.63235C29.331 3.71908 30.3644 4.03864 31.054 4.30429C31.966 4.65776 32.6166 5.08217 33.3008 5.76535C33.9849 6.44854 34.4068 7.10016 34.7618 8.01212C35.03 8.69968 35.3472 9.73508 35.4338 11.6395C35.5285 13.7001 35.5474 14.3169 35.5474 19.5331C35.5474 24.7494 35.5285 25.3662 35.4338 27.4268C35.347 29.3312 35.0283 30.3663 34.7618 31.0542C34.4068 31.9661 33.9839 32.6168 33.3008 33.2994C32.6176 33.9819 31.966 34.4054 31.054 34.7604C30.3664 35.0286 29.331 35.3458 27.4266 35.4324C25.3677 35.5271 24.7492 35.546 19.533 35.546C14.3167 35.546 13.7 35.5271 11.6417 35.4324ZM29.9591 11.4502C28.6645 11.4497 27.6155 10.3999 27.616 9.10534C27.6172 7.81142 28.6661 6.76292 29.96 6.76232H29.9609C31.2555 6.76284 32.3045 7.81268 32.304 9.10721C32.3034 10.4017 31.2536 11.4508 29.9591 11.4502ZM9.50303 19.533C9.50303 25.0725 13.9934 29.5629 19.533 29.5629C25.0725 29.5629 29.5629 25.0725 29.5629 19.533C29.5629 13.9934 25.0725 9.50303 19.533 9.50303C13.9934 9.50303 9.50303 13.9934 9.50303 19.533ZM13.023 19.533C13.023 15.9372 15.9372 13.0215 19.533 13.0215C23.1288 13.0215 26.0445 15.9372 26.0445 19.533C26.0445 23.1288 23.1288 26.0445 19.533 26.0445C15.9372 26.0445 13.023 23.1288 13.023 19.533Z" fill="url(#paint0_radial)"/>
<path fill-rule="evenodd" clip-rule="evenodd" d="M6.73872 1.02556C7.97961 0.542704 9.40052 0.212988 11.4799 0.118292C13.5637 0.0220332 14.23 0 19.5345 0C24.8391 0 25.5049 0.0235958 27.5876 0.118292C29.6654 0.211425 31.0856 0.542704 32.3288 1.02556C33.6116 1.5242 34.702 2.19144 35.7874 3.27857C36.8728 4.3657 37.5404 5.45439 38.0404 6.73872C38.5233 7.97961 38.853 9.40036 38.9477 11.4799C39.0424 13.5626 39.0644 14.2284 39.0644 19.533C39.0644 24.8375 39.0424 25.5018 38.9477 27.586C38.8545 29.6654 38.5233 31.0856 38.0404 32.3272C37.5404 33.6116 36.8745 34.702 35.7874 35.7874C34.7003 36.8728 33.6116 37.5404 32.3272 38.0404C31.0856 38.5233 29.6656 38.853 27.586 38.9477C25.5034 39.0439 24.8375 39.066 19.533 39.066C14.2284 39.066 13.5637 39.0424 11.4799 38.9477C9.40052 38.853 7.98196 38.5233 6.73872 38.0404C5.45361 37.5404 4.36554 36.8723 3.27857 35.7874C2.1916 34.7024 1.5242 33.6116 1.02556 32.3272C0.542704 31.0856 0.212988 29.6656 0.118292 27.586C0.0220332 25.5034 0 24.8375 0 19.533C0 14.2284 0.0220332 13.5626 0.118292 11.4799C0.212988 9.40052 0.542704 7.98039 1.02556 6.73872C1.5242 5.45361 2.19144 4.36398 3.27857 3.27857C4.3657 2.19316 5.45361 1.5242 6.73872 1.02556ZM11.6417 35.4324C9.73727 35.3456 8.70218 35.0284 8.0143 34.7604C7.10235 34.4054 6.45166 33.9825 5.76754 33.2994C5.08342 32.6162 4.65994 31.9661 4.30648 31.0542C4.03833 30.3666 3.72111 29.3312 3.63454 27.4268C3.53984 25.3679 3.52094 24.7494 3.52094 19.5331C3.52094 14.3169 3.54141 13.7001 3.63454 11.6395C3.72127 9.73508 4.04083 8.70171 4.30648 8.01212C4.66151 7.10016 5.08436 6.44948 5.76754 5.76535C6.45073 5.08123 7.10079 4.65776 8.0143 4.30429C8.70186 4.03614 9.73727 3.71892 11.6417 3.63235C13.7006 3.53766 14.3191 3.51875 19.533 3.51875C24.7469 3.51875 25.366 3.53922 27.4266 3.63235C29.331 3.71908 30.3644 4.03864 31.054 4.30429C31.966 4.65776 32.6166 5.08217 33.3008 5.76535C33.9849 6.44854 34.4068 7.10016 34.7618 8.01212C35.03 8.69968 35.3472 9.73508 35.4338 11.6395C35.5285 13.7001 35.5474 14.3169 35.5474 19.5331C35.5474 24.7494 35.5285 25.3662 35.4338 27.4268C35.347 29.3312 35.0283 30.3663 34.7618 31.0542C34.4068 31.9661 33.9839 32.6168 33.3008 33.2994C32.6176 33.9819 31.966 34.4054 31.054 34.7604C30.3664 35.0286 29.331 35.3458 27.4266 35.4324C25.3677 35.5271 24.7492 35.546 19.533 35.546C14.3167 35.546 13.7 35.5271 11.6417 35.4324ZM29.9591 11.4502C28.6645 11.4497 27.6155 10.3999 27.616 9.10534C27.6172 7.81142 28.6661 6.76292 29.96 6.76232H29.9609C31.2555 6.76284 32.3045 7.81268 32.304 9.10721C32.3034 10.4017 31.2536 11.4508 29.9591 11.4502ZM9.50303 19.533C9.50303 25.0725 13.9934 29.5629 19.533 29.5629C25.0725 29.5629 29.5629 25.0725 29.5629 19.533C29.5629 13.9934 25.0725 9.50303 19.533 9.50303C13.9934 9.50303 9.50303 13.9934 9.50303 19.533ZM13.023 19.533C13.023 15.9372 15.9372 13.0215 19.533 13.0215C23.1288 13.0215 26.0445 15.9372 26.0445 19.533C26.0445 23.1288 23.1288 26.0445 19.533 26.0445C15.9372 26.0445 13.023 23.1288 13.023 19.533Z" fill="white"/>
<defs>
<radialGradient id="paint0_radial" cx="0" cy="0" r="1" gradientUnits="userSpaceOnUse" gradientTransform="translate(5.19015 39.2505) scale(50.9973 50.9994)">
<stop offset="0.09" stop-color="#FA8F21"/>
<stop offset="0.78" stop-color="#D82D7E"/>
</radialGradient>
</defs>
</svg>
