<svg width="32" height="40" viewBox="0 0 32 40" fill="none" xmlns="http://www.w3.org/2000/svg">
<path fill-rule="evenodd" clip-rule="evenodd" d="M23.7678 0C24.0192 2.29558 23.0976 4.60272 21.7285 6.26003C20.3593 7.91839 18.1121 9.20641 15.9123 9.03622C15.6125 6.78607 16.7236 4.43834 17.9922 2.97152C19.4078 1.31511 21.7942 0.0793198 23.7678 0ZM31.9163 28.7592C31.6812 28.6641 26.7164 26.6547 26.6623 20.8296C26.6187 15.9718 30.546 13.5845 30.883 13.3796C30.8901 13.3753 30.8956 13.3719 30.8995 13.3695C28.5954 9.99681 25.0069 9.53363 23.7286 9.48042C21.8608 9.29116 20.0488 10.0059 18.569 10.5896C17.6295 10.9602 16.8239 11.278 16.2231 11.278C15.5527 11.278 14.7244 10.9494 13.7951 10.5808C12.5782 10.0982 11.1881 9.54685 9.75225 9.57424C6.42307 9.62261 3.35585 11.5091 1.63952 14.4883C-1.81541 20.4873 0.757619 29.3746 4.12454 34.2423C5.7722 36.622 7.73608 39.3023 10.315 39.2047C11.4691 39.1593 12.2895 38.8099 13.1377 38.4486C14.116 38.032 15.1314 37.5995 16.7385 37.5995C18.2738 37.5995 19.2446 38.0195 20.1781 38.4233C21.0695 38.809 21.9269 39.1799 23.2093 39.1562C25.881 39.1069 27.577 36.7274 29.2112 34.3389C31.0405 31.6655 31.8294 29.0746 31.9179 28.7839C31.9209 28.7742 31.9231 28.767 31.9245 28.7625C31.9234 28.7621 31.9207 28.761 31.9163 28.7592Z" fill="white"/>
</svg>
