<svg width="34" height="39" viewBox="0 0 34 39" fill="none" xmlns="http://www.w3.org/2000/svg">
<path d="M10.1226 15.6658C10.0647 15.6658 10.0262 15.6658 9.9876 15.6273C8.67649 13.892 8.34871 10.9034 8.27159 9.76583C8.2523 9.54409 8.00165 9.42841 7.80884 9.53445C3.75981 11.8 0 17.1794 0 22.366C0 31.3028 6.19887 38.7935 16.8709 38.7935C26.8682 38.7935 33.7419 31.0811 33.7419 22.3757C33.7419 10.9902 25.6149 3.45127 18.3749 0.0385182C18.1821 -0.0578872 17.97 0.106002 17.9893 0.308453C18.934 6.44948 17.6422 13.1111 10.1129 15.6851L10.1226 15.6658Z" fill="white"/>
</svg>
