<svg width="40" height="40" viewBox="0 0 40 40" fill="none" xmlns="http://www.w3.org/2000/svg">
<path fill-rule="evenodd" clip-rule="evenodd" d="M0.00195312 19.5349C0.00195312 8.74708 8.74708 0.00195312 19.5349 0.00195312C30.3226 0.00195312 39.0678 8.74708 39.0679 19.5349C39.0679 30.3227 30.3227 39.0678 19.5349 39.0678C8.74708 39.0678 0.00195312 30.3227 0.00195312 19.5349ZM10.0348 28.9782H14.3235V15.1228H10.0348V28.9782ZM12.1587 13.3083C10.7581 13.3083 9.62262 12.1636 9.62262 10.7517C9.62262 9.33971 10.7582 8.19508 12.1587 8.19508C13.5592 8.19508 14.6946 9.33971 14.6946 10.7517C14.6947 12.1636 13.5593 13.3083 12.1587 13.3083ZM26.1273 28.9782H30.3952L30.3953 20.2051C30.3953 16.494 28.2921 14.7001 25.3541 14.7001C22.4162 14.7001 21.1789 16.9888 21.1789 16.9888V15.1228H17.0656V28.9782H21.1789V21.7052C21.1789 19.7567 22.0757 18.597 23.7923 18.597C25.3696 18.597 26.1273 19.7105 26.1273 21.7052V28.9782Z" fill="white"/>
</svg>
