<svg width="39" height="40" viewBox="0 0 39 40" fill="none" xmlns="http://www.w3.org/2000/svg">
<path d="M38.261 19.9546C38.261 18.3496 38.1308 17.1784 37.8489 15.9637H19.521V23.2081H30.2791C30.0623 25.0084 28.891 27.7196 26.2882 29.5415L26.2517 29.784L32.0467 34.2733L32.4481 34.3134C36.1354 30.908 38.261 25.8976 38.261 19.9546Z" fill="white"/>
<path opacity="0.6" d="M19.5207 39.0418C24.7913 39.0418 29.216 37.3065 32.4479 34.3134L26.2879 29.5415C24.6395 30.6911 22.4271 31.4936 19.5207 31.4936C14.3586 31.4936 9.97726 28.0884 8.41544 23.3817L8.18651 23.4012L2.16083 28.0645L2.08203 28.2835C5.2921 34.6603 11.8858 39.0418 19.5207 39.0418Z" fill="white"/>
<path opacity="0.8" d="M8.41559 23.3816C8.00349 22.167 7.76499 20.8655 7.76499 19.5208C7.76499 18.176 8.00349 16.8746 8.39391 15.66L8.38299 15.4013L2.2818 10.6631L2.08218 10.758C0.759154 13.4042 0 16.3758 0 19.5208C0 22.6659 0.759154 25.6373 2.08218 28.2835L8.41559 23.3816Z" fill="white"/>
<path d="M19.5207 7.54803C23.1863 7.54803 25.6589 9.13138 27.0688 10.4546L32.578 5.07543C29.1945 1.93041 24.7913 0 19.5207 0C11.8858 0 5.2921 4.38132 2.08203 10.7581L8.39376 15.6601C9.97726 10.9534 14.3586 7.54803 19.5207 7.54803Z" fill="white"/>
</svg>
