<svg width="23" height="41" viewBox="0 0 23 41" fill="none" xmlns="http://www.w3.org/2000/svg">
<path d="M14.9093 1.0415L14.8939 9.7051L14.8784 18.3687L14.1667 16.3575V16.3524L13.2437 35.6392C14.1513 38.197 14.636 39.5636 14.6412 39.5687C14.6463 39.5739 15.162 39.6048 15.786 39.6358C17.6734 39.7286 20.0147 39.9297 21.7938 40.1515C22.2064 40.203 22.557 40.2288 22.5828 40.2082C22.6086 40.1876 22.6137 31.3693 22.6086 20.6068L22.5931 1.0415L14.9093 1.0415Z" fill="white" stroke="black" stroke-width="0.5"/>
<path d="M1.01123 1.01578V20.6017C1.01123 31.3745 1.02154 40.1979 1.03701 40.2134C1.05249 40.2289 1.71773 40.1618 2.5222 40.0742C3.32668 39.9865 4.43541 39.8731 4.9872 39.8266C5.83294 39.7544 8.37013 39.5946 8.65892 39.5894C8.74659 39.5894 8.75174 39.1511 8.76206 31.292L8.77753 22.9945L9.3912 24.7272C9.48402 24.9954 9.51497 25.0779 9.60779 25.3409L10.5309 6.05923C10.3349 5.50744 10.4381 5.79623 10.2163 5.16709C9.4634 3.03728 8.82394 1.23752 8.79816 1.15501L8.74659 1.01062H1.01123V1.01578Z" fill="white" stroke="black" stroke-width="0.5"/>
<path d="M14.9093 1.0415L14.8939 9.7051L14.8784 18.3687L14.1667 16.3575V16.3524L13.2437 35.6392C14.1513 38.197 14.636 39.5636 14.6412 39.5687C14.6463 39.5739 15.162 39.6048 15.786 39.6358C17.6734 39.7286 20.0147 39.9297 21.7938 40.1515C22.2064 40.203 22.557 40.2288 22.5828 40.2082C22.6086 40.1876 22.6137 31.3693 22.6086 20.6068L22.5931 1.0415L14.9093 1.0415Z" fill="white" stroke="black" stroke-width="0.5"/>
<path d="M1.01123 1.01578V20.6017C1.01123 31.3745 1.02154 40.1979 1.03701 40.2134C1.05249 40.2289 1.71773 40.1618 2.5222 40.0742C3.32668 39.9865 4.43541 39.8731 4.9872 39.8266C5.83294 39.7544 8.37013 39.5946 8.65892 39.5894C8.74659 39.5894 8.75174 39.1511 8.76206 31.292L8.77753 22.9945L9.3912 24.7272C9.48402 24.9954 9.51497 25.0779 9.60779 25.3409L10.5309 6.05923C10.3349 5.50744 10.4381 5.79623 10.2163 5.16709C9.4634 3.03728 8.82394 1.23752 8.79816 1.15501L8.74659 1.01062H1.01123V1.01578Z" fill="white" stroke="black" stroke-width="0.5"/>
<path d="M1.01123 1.01578V12.0103L8.7569 32.5554C8.7569 32.0861 8.7569 31.8283 8.76206 31.292L8.77753 22.9945L9.3912 24.7272C12.7948 34.3809 14.6255 39.5585 14.6358 39.5688C14.6409 39.574 15.1566 39.6049 15.7806 39.6358C17.668 39.7287 20.0093 39.9298 21.7884 40.1515C22.201 40.2031 22.5516 40.2289 22.5774 40.2082C22.5929 40.1928 22.6032 35.8713 22.6032 29.7707L14.8988 7.6063L14.8936 9.70516L14.8781 18.3688L14.1665 16.3576C13.4703 14.3928 13.0062 13.0778 10.206 5.16709C9.45308 3.03728 8.81363 1.23752 8.78784 1.15501L8.73627 1.01062H1.01123V1.01578Z" fill="white"/>
<path d="M1.01123 1.01578L8.77237 23.01V22.9997L9.38604 24.7324C12.7948 34.3809 14.6255 39.5585 14.6358 39.5688C14.6409 39.574 15.1566 39.6049 15.7806 39.6358C17.668 39.7287 20.0093 39.9298 21.7884 40.1515C22.1958 40.2031 22.5516 40.2289 22.5722 40.2082L14.8781 18.3636V18.3688L14.1665 16.3576C13.4703 14.3928 13.0062 13.0778 10.206 5.16709C9.45308 3.03728 8.81363 1.23752 8.78784 1.15501L8.73627 1.01062H4.87375L1.01123 1.01578Z" fill="white"/>
</svg>
