<svg width="40" height="40" viewBox="0 0 40 40" fill="none" xmlns="http://www.w3.org/2000/svg">
<path fill-rule="evenodd" clip-rule="evenodd" d="M6.52875 0H32.5372C34.2689 -0.000470657 35.9298 0.687226 37.1543 1.91171C38.3787 3.13619 39.0664 4.79707 39.066 6.52875V32.5372C39.0662 34.2688 38.3784 35.9296 37.154 37.154C35.9296 38.3784 34.2688 39.0662 32.5372 39.066H6.52875C2.92302 39.066 0 36.1429 0 32.5372V6.52875C0 2.92302 2.92302 0 6.52875 0ZM29.904 31.9646C31.0412 31.9646 31.9632 31.043 31.9637 29.9058H31.9628V9.16724C31.9631 8.62083 31.7462 8.09672 31.3599 7.71027C30.9736 7.32382 30.4496 7.1067 29.9032 7.1067H9.16635C8.61979 7.10646 8.09554 7.32348 7.70907 7.70995C7.32259 8.09643 7.10557 8.62068 7.10581 9.16724V29.9058C7.10604 30.4521 7.32327 30.9759 7.70969 31.362C8.09612 31.7481 8.62009 31.9648 9.16635 31.9646H29.904Z" fill="white"/>
<path d="M15.3881 24.8606C14.7334 24.8586 14.2041 24.3266 14.2056 23.6719V15.3942C14.2056 14.7381 14.7347 14.2054 15.3881 14.2054H23.6782C24.3334 14.2054 24.8607 14.7381 24.8607 15.3942V23.6719C24.8607 24.327 24.3334 24.8606 23.6782 24.8606H15.3881Z" fill="white"/>
</svg>
