<svg width="43" height="39" viewBox="0 0 43 39" fill="none" xmlns="http://www.w3.org/2000/svg">
<path fill-rule="evenodd" clip-rule="evenodd" d="M13.0091 14.3988C12.1341 15.6599 11.6966 17.1782 11.6966 18.9539C11.6966 21.1929 12.3336 22.9236 13.6075 24.146C14.8814 25.3684 16.5091 25.9796 18.4907 25.9796C19.7775 25.9796 20.8583 25.851 21.7333 25.5936C23.123 25.2076 24.5384 24.2297 25.9796 22.6598C26.0826 22.7885 26.2627 23.0394 26.5201 23.4126C26.7774 23.7857 26.964 24.0366 27.0798 24.1653C27.1956 24.294 27.3886 24.4999 27.6589 24.7829C27.9291 25.066 28.2443 25.362 28.6046 25.6708C29.0421 25.851 29.4153 25.8252 29.7241 25.5936C29.9042 25.4392 31.0623 24.4355 33.1983 22.5826C33.4042 22.4282 33.5072 22.248 33.5072 22.0422C33.5072 21.862 33.43 21.6561 33.2756 21.4245C32.8638 20.8841 32.5678 20.4916 32.3877 20.2471C32.2075 20.0027 32.021 19.6037 31.8279 19.0504C31.6349 18.4972 31.5384 17.8859 31.5384 17.2168V7.87496C31.5384 7.772 31.5255 7.44388 31.4998 6.89059C31.4741 6.33729 31.4355 5.97698 31.384 5.80971C31.3325 5.64245 31.2553 5.34003 31.1524 4.90255C31.0494 4.46506 30.9336 4.13049 30.805 3.89888C30.6763 3.66726 30.5026 3.40349 30.2838 3.10752C30.0667 2.81351 29.828 2.53609 29.5697 2.27756C27.9226 0.7592 25.6322 0 22.6984 0H21.7333C19.4429 0.128663 17.442 0.746307 15.7306 1.85293C14.0192 2.95956 12.9448 4.65808 12.5073 6.94849C12.4815 7.05144 12.4687 7.1415 12.4687 7.21871C12.4687 7.57899 12.6874 7.81061 13.1249 7.91356L17.5642 8.454C17.976 8.37679 18.2333 8.08082 18.3363 7.56613C18.5164 6.74262 18.9153 6.09923 19.533 5.636C20.1506 5.17277 20.8841 4.90255 21.7333 4.82534H22.0422C23.2002 4.82534 24.0495 5.21137 24.5899 5.98342C24.9502 6.54961 25.1304 7.65619 25.1304 9.30326V9.9595C23.5605 10.0882 22.4282 10.1911 21.7333 10.2683C19.7002 10.5257 17.9889 10.9503 16.5992 11.5422C15.0808 12.1856 13.8841 13.1378 13.0091 14.3988ZM0.694849 29.9171C0.411737 29.737 0.205868 29.7498 0.0772054 29.9557C0.0257094 30.0329 0 30.1101 0 30.1873C0 30.316 0.0772055 30.4447 0.231616 30.5734C3.06247 33.1211 6.2665 35.0963 9.8437 36.4989C13.4209 37.9014 17.2168 38.6027 21.2315 38.6027C23.8307 38.6027 26.4943 38.2424 29.2223 37.5219C31.9502 36.8013 34.4207 35.7847 36.634 34.4722C37.3545 34.0347 37.9465 33.6487 38.4097 33.3142C38.77 33.0568 38.8408 32.7737 38.622 32.4649C38.4033 32.1561 38.1009 32.0789 37.7149 32.2333C37.6119 32.2847 37.4382 32.3619 37.1937 32.4649C36.9492 32.5678 36.7626 32.6451 36.634 32.6965C31.7185 34.5752 26.7388 35.5145 21.6947 35.5145C14.1286 35.5145 7.12861 33.6487 0.694849 29.9171ZM18.3363 18.1819C18.3363 19.1856 18.5872 19.9898 19.089 20.5946C19.5909 21.1993 20.2664 21.5017 21.1157 21.5017C21.1929 21.5017 21.3023 21.4889 21.4438 21.4631C21.5853 21.4374 21.6818 21.4245 21.7333 21.4245C22.8142 21.1414 23.6506 20.4466 24.2425 19.34C24.5256 18.851 24.7379 18.317 24.8795 17.738C25.021 17.1589 25.0982 16.6892 25.1111 16.329C25.1239 15.9687 25.1304 15.3767 25.1304 14.5532V13.5882C23.6377 13.5882 22.5054 13.6911 21.7333 13.897C19.4686 14.5404 18.3363 15.9687 18.3363 18.1819ZM34.7811 30.3031C34.6781 30.4061 34.6009 30.509 34.5494 30.612C34.5237 30.6634 34.5108 30.702 34.5108 30.7278C34.4851 30.7792 34.4979 30.8307 34.5494 30.8822C34.6009 30.9336 34.7039 30.9594 34.8583 30.9594C35.3987 30.8822 35.9906 30.805 36.634 30.7278C37.2259 30.6763 37.7406 30.6506 38.1781 30.6506C39.3619 30.6506 40.0825 30.805 40.3399 31.1138C40.4428 31.2425 40.4943 31.4484 40.4943 31.7314C40.4943 32.6064 40.0181 34.1634 39.066 36.4024C38.9888 36.6082 39.0274 36.7498 39.1818 36.827C39.2332 36.8527 39.2847 36.8656 39.3362 36.8656C39.4391 36.8656 39.5549 36.8141 39.6836 36.7112C40.5586 35.9649 41.2406 34.9805 41.7295 33.7581C42.2185 32.5357 42.463 31.4741 42.463 30.5734V30.3031C42.463 29.9943 42.4115 29.7627 42.3086 29.6083C42.077 29.3252 41.3821 29.1322 40.224 29.0293C39.9924 28.9778 39.7479 28.9649 39.4906 28.9906C38.5641 29.0164 37.6119 29.1579 36.634 29.4153C36.0421 29.5697 35.4244 29.8657 34.7811 30.3031Z" fill="white"/>
</svg>
