<svg width="114" height="48" viewBox="0 0 114 48" fill="none" xmlns="http://www.w3.org/2000/svg">
<g clip-path="url(#clip0)">
<path fill-rule="evenodd" clip-rule="evenodd" d="M64 43.0003V42.6872H109V43.0003C112.15 38.5594 114 33.1441 114 27.2999C114 12.2226 101.688 0 86.5 0C71.3122 0 59 12.2226 59 27.2999C59 33.1441 60.8499 38.5594 64 43.0003Z" fill="#A2FCFF"/>
<path d="M6.14 43.32C5.59333 43.32 5.00667 43.2333 4.38 43.06C3.76667 42.8867 3.2 42.6467 2.68 42.34H2.66L2.72 43.18H1.18V38.5H2.5C2.67333 39.5933 3.09333 40.4333 3.76 41.02C4.42667 41.5933 5.24 41.88 6.2 41.88C6.89333 41.88 7.46667 41.7 7.92 41.34C8.37333 40.9667 8.6 40.52 8.6 40C8.6 39.5733 8.44667 39.2067 8.14 38.9C7.84667 38.5933 7.51333 38.3533 7.14 38.18C6.78 38.0067 6.2 37.76 5.4 37.44C3.93333 36.8533 2.80667 36.1867 2.02 35.44C1.24667 34.6933 0.86 33.7133 0.86 32.5C0.86 31.8867 1.01333 31.2933 1.32 30.72C1.62667 30.1333 2.12667 29.6467 2.82 29.26C3.52667 28.8733 4.43333 28.68 5.54 28.68C6.11333 28.68 6.71333 28.7667 7.34 28.94C7.96667 29.1 8.48667 29.3333 8.9 29.64H8.92L8.84 28.82H10.4V33.48H9.08C8.90667 32.3867 8.52 31.5533 7.92 30.98C7.33333 30.4067 6.58 30.12 5.66 30.12C5.06 30.12 4.54 30.2867 4.1 30.62C3.67333 30.94 3.46 31.3467 3.46 31.84C3.46 32.4267 3.70667 32.92 4.2 33.32C4.69333 33.72 5.52667 34.16 6.7 34.64C8.04667 35.1733 9.14 35.7933 9.98 36.5C10.8333 37.1933 11.26 38.12 11.26 39.28C11.26 40.0667 11.0467 40.7667 10.62 41.38C10.1933 41.9933 9.59333 42.4733 8.82 42.82C8.04667 43.1533 7.15333 43.32 6.14 43.32ZM19.1798 43.32C18.2065 43.32 17.3465 43.1067 16.5998 42.68C15.8531 42.24 15.2731 41.62 14.8598 40.82C14.4465 40.02 14.2398 39.0867 14.2398 38.02C14.2398 37.0867 14.4465 36.2133 14.8598 35.4C15.2865 34.5733 15.8798 33.9133 16.6398 33.42C17.3998 32.9267 18.2665 32.68 19.2398 32.68C20.5331 32.68 21.6065 33.06 22.4598 33.82C23.3265 34.58 23.7531 35.8467 23.7398 37.62L17.1798 37.74C17.1798 38.9133 17.3998 39.84 17.8398 40.52C18.2931 41.2 19.0131 41.54 19.9998 41.54C20.4665 41.54 20.9665 41.42 21.4998 41.18C22.0331 40.94 22.5131 40.56 22.9398 40.04L23.8398 40.88C22.7065 42.5067 21.1531 43.32 19.1798 43.32ZM20.9798 36.34C20.9398 34.8333 20.3931 34.08 19.3398 34.08C18.7665 34.08 18.3065 34.2867 17.9598 34.7C17.6265 35.1 17.4065 35.6467 17.2998 36.34H20.9798ZM29.3682 43.32C28.5282 43.32 27.8615 43.0733 27.3682 42.58C26.8882 42.0733 26.6482 41.4333 26.6482 40.66C26.6482 39.4867 27.1948 38.6 28.2882 38C29.3815 37.3867 30.6948 37.0467 32.2282 36.98V35.94C32.2282 34.7267 31.7748 34.12 30.8682 34.12C30.2815 34.12 29.8015 34.3067 29.4282 34.68C29.5882 34.8667 29.6682 35.12 29.6682 35.44C29.6682 35.76 29.5548 36.0467 29.3282 36.3C29.1148 36.5533 28.7948 36.68 28.3682 36.68C27.9682 36.68 27.6548 36.5533 27.4282 36.3C27.2015 36.0333 27.0882 35.7067 27.0882 35.32C27.0882 34.8 27.2748 34.34 27.6482 33.94C28.0215 33.54 28.5282 33.2333 29.1682 33.02C29.8215 32.7933 30.5348 32.68 31.3082 32.68C33.7748 32.68 35.0082 33.9533 35.0082 36.5L34.9882 39.78C34.9882 40.42 34.9615 41.0067 34.9082 41.54C35.3482 41.5 35.7815 41.48 36.2082 41.48V43H32.4282C32.4015 42.8267 32.3748 42.52 32.3482 42.08H32.3282C31.5148 42.9067 30.5282 43.32 29.3682 43.32ZM30.6282 41.36C31.2282 41.36 31.7548 41.12 32.2082 40.64V38.4C31.4215 38.48 30.7682 38.68 30.2482 39C29.7415 39.32 29.4882 39.7533 29.4882 40.3C29.4882 40.66 29.5948 40.9267 29.8082 41.1C30.0348 41.2733 30.3082 41.36 30.6282 41.36ZM44.1631 43.32C43.6965 43.32 43.1965 43.2267 42.6631 43.04C42.1431 42.8667 41.6765 42.56 41.2631 42.12H41.2431L40.6631 43H39.4631V31.7C39.4631 30.9267 39.4831 30.3467 39.5231 29.96L38.1231 30.02V28.5C38.9631 28.5 39.6431 28.44 40.1631 28.32C40.6831 28.2 41.0298 28.06 41.2031 27.9H42.2831V33.76C43.0965 33.04 43.9965 32.68 44.9831 32.68C45.7831 32.68 46.4831 32.8867 47.0831 33.3C47.6965 33.7133 48.1698 34.3067 48.5031 35.08C48.8498 35.84 49.0231 36.7267 49.0231 37.74C49.0231 38.82 48.8231 39.78 48.4231 40.62C48.0365 41.46 47.4765 42.12 46.7431 42.6C46.0098 43.08 45.1498 43.32 44.1631 43.32ZM43.8231 41.86C44.6231 41.86 45.1965 41.5 45.5431 40.78C45.9031 40.06 46.0831 39.1467 46.0831 38.04C46.0831 37.0533 45.9031 36.2133 45.5431 35.52C45.1965 34.8267 44.6698 34.48 43.9631 34.48C43.6298 34.48 43.3098 34.56 43.0031 34.72C42.7098 34.8667 42.4698 35.0733 42.2831 35.34V40C42.2831 40.6533 42.4298 41.1267 42.7231 41.42C43.0298 41.7133 43.3965 41.86 43.8231 41.86ZM52.1546 41.7C52.6613 41.7 52.9813 41.56 53.1146 41.28C53.2613 41 53.3346 40.5467 53.3346 39.92V36.56C53.3346 35.96 53.3613 35.3933 53.4146 34.86L52.0146 34.92V33.4C52.8546 33.4 53.5346 33.34 54.0546 33.22C54.5746 33.1 54.9213 32.96 55.0946 32.8H56.0746C56.1013 33 56.1213 33.26 56.1346 33.58C56.148 33.9 56.1546 34.2133 56.1546 34.52H56.1946C57.1013 33.2933 58.0613 32.68 59.0746 32.68C59.5813 32.68 59.9946 32.82 60.3146 33.1C60.648 33.38 60.8146 33.7933 60.8146 34.34C60.8146 34.6867 60.7013 35.0067 60.4746 35.3C60.248 35.5933 59.908 35.74 59.4546 35.74C59.1213 35.74 58.8213 35.6533 58.5546 35.48C58.3013 35.3067 58.1546 35.0067 58.1146 34.58C57.7413 34.58 57.3546 34.8 56.9546 35.24C56.568 35.6667 56.308 36.0933 56.1746 36.52V39.78C56.1746 40.42 56.148 41.0067 56.0946 41.54C56.5213 41.5 56.9546 41.48 57.3946 41.48V43H52.1546V41.7ZM66.2507 31.02C65.7973 31.02 65.424 30.8667 65.1307 30.56C64.8373 30.24 64.6907 29.8533 64.6907 29.4C64.6907 28.9467 64.844 28.56 65.1507 28.24C65.4573 27.9067 65.8173 27.74 66.2307 27.74C66.6573 27.74 67.0107 27.9 67.2907 28.22C67.584 28.54 67.7307 28.9333 67.7307 29.4C67.7307 29.8667 67.5907 30.2533 67.3107 30.56C67.044 30.8667 66.6907 31.02 66.2507 31.02ZM63.4307 41.7C63.9373 41.7 64.2573 41.56 64.3907 41.28C64.5373 41 64.6107 40.5467 64.6107 39.92V36.6C64.6107 35.9733 64.6373 35.3933 64.6907 34.86L63.2907 34.92V33.4C64.1307 33.4 64.8107 33.34 65.3307 33.22C65.8507 33.1 66.1973 32.96 66.3707 32.8H67.4507V39.78C67.4507 40.42 67.424 41.0067 67.3707 41.54C67.7973 41.5 68.2307 41.48 68.6707 41.48V43H63.4307V41.7ZM75.9403 48.42C74.327 48.42 73.1603 48.1733 72.4403 47.68C71.7336 47.1867 71.3803 46.56 71.3803 45.8C71.3803 45.3333 71.527 44.8933 71.8203 44.48C72.127 44.08 72.6136 43.7533 73.2803 43.5C72.7603 43.3533 72.3803 43.1267 72.1403 42.82C71.9136 42.5133 71.8003 42.1533 71.8003 41.74C71.8003 41.34 71.9536 40.9333 72.2603 40.52C72.5803 40.1067 73.0736 39.8 73.7403 39.6V39.58C73.1403 39.34 72.6603 38.9667 72.3003 38.46C71.9536 37.94 71.7803 37.3267 71.7803 36.62C71.7803 35.8733 71.987 35.2 72.4003 34.6C72.827 34 73.3803 33.5333 74.0603 33.2C74.7536 32.8533 75.4803 32.68 76.2403 32.68C76.6403 32.68 77.0603 32.7333 77.5003 32.84C77.9403 32.9333 78.3136 33.0867 78.6203 33.3C78.8736 32.6067 79.2136 32.0333 79.6403 31.58C80.067 31.1133 80.5736 30.88 81.1603 30.88C81.6003 30.88 81.9403 30.9933 82.1803 31.22C82.4203 31.4467 82.5403 31.76 82.5403 32.16C82.5403 32.4667 82.4403 32.7467 82.2403 33C82.0536 33.2533 81.7536 33.38 81.3403 33.38C81.127 33.38 80.9136 33.3067 80.7003 33.16C80.5003 33 80.3803 32.8133 80.3403 32.6C80.167 32.6533 79.9936 32.8267 79.8203 33.12C79.647 33.4 79.547 33.66 79.5203 33.9C79.8936 34.2333 80.1803 34.62 80.3803 35.06C80.5936 35.5 80.7003 35.9733 80.7003 36.48C80.7003 37.2267 80.487 37.9067 80.0603 38.52C79.6336 39.12 79.0736 39.5933 78.3803 39.94C77.687 40.2733 76.947 40.44 76.1603 40.44L75.6003 40.42C75.307 40.3933 75.0936 40.38 74.9603 40.38C74.667 40.38 74.4203 40.4333 74.2203 40.54C74.0203 40.6467 73.9203 40.7933 73.9203 40.98C73.9203 41.22 74.1003 41.3933 74.4603 41.5C74.8336 41.5933 75.507 41.6667 76.4803 41.72C78.1603 41.8133 79.4336 42.0933 80.3003 42.56C81.167 43.0267 81.6003 43.8067 81.6003 44.9C81.6003 45.62 81.3203 46.2467 80.7603 46.78C80.2136 47.3133 79.5003 47.72 78.6203 48C77.7536 48.28 76.8603 48.42 75.9403 48.42ZM76.2403 39.1C76.747 39.1 77.147 38.8733 77.4403 38.42C77.747 37.9667 77.9003 37.44 77.9003 36.84C77.9003 36.08 77.7536 35.42 77.4603 34.86C77.167 34.3 76.7536 34.02 76.2203 34.02C75.7136 34.02 75.307 34.2533 75.0003 34.72C74.6936 35.1867 74.5403 35.74 74.5403 36.38C74.5403 37.1267 74.6936 37.7667 75.0003 38.3C75.307 38.8333 75.7203 39.1 76.2403 39.1ZM76.5203 47.04C77.1203 47.04 77.6336 46.96 78.0603 46.8C78.5003 46.64 78.8336 46.4333 79.0603 46.18C79.287 45.94 79.4003 45.6933 79.4003 45.44C79.4003 45.0267 79.1603 44.7133 78.6803 44.5C78.2136 44.2867 77.4936 44.16 76.5203 44.12C76.4136 44.1067 76.2403 44.1 76.0003 44.1C75.867 44.0867 75.6336 44.0667 75.3003 44.04C74.967 44.0267 74.6936 44 74.4803 43.96C74.2803 44.12 74.1203 44.3267 74.0003 44.58C73.8936 44.8333 73.8403 45.0867 73.8403 45.34C73.8403 45.86 74.0803 46.2733 74.5603 46.58C75.0536 46.8867 75.707 47.04 76.5203 47.04ZM84.0026 41.7C84.3626 41.7 84.6226 41.6333 84.7826 41.5C84.9559 41.3533 85.0626 41.16 85.1026 40.92C85.1559 40.68 85.1826 40.3467 85.1826 39.92V31.7C85.1826 31.06 85.2093 30.48 85.2626 29.96L83.8626 30.02V28.5C84.7026 28.5 85.3826 28.44 85.9026 28.32C86.4226 28.2 86.7693 28.06 86.9426 27.9H88.0226V33.8C88.4093 33.4933 88.8893 33.2333 89.4626 33.02C90.0359 32.7933 90.5293 32.68 90.9426 32.68C92.1426 32.68 93.0026 33.0267 93.5226 33.72C94.0426 34.4133 94.3093 35.54 94.3226 37.1V39.78C94.3226 40.42 94.2959 41.0067 94.2426 41.54C94.6693 41.5 95.1026 41.48 95.5426 41.48V43H90.2826V41.7C90.7893 41.7 91.1159 41.56 91.2626 41.28C91.4093 41 91.4826 40.5467 91.4826 39.92L91.4626 37.08C91.4626 36.2 91.3293 35.5533 91.0626 35.14C90.8093 34.7267 90.4026 34.52 89.8426 34.52C89.5226 34.52 89.1959 34.5933 88.8626 34.74C88.5293 34.8733 88.2493 35.0467 88.0226 35.26V39.78C88.0226 40.42 87.9959 41.0067 87.9426 41.54C88.3826 41.5 88.8159 41.48 89.2426 41.48V43H84.0026V41.7ZM102.254 43.32C100.174 43.32 99.134 42.04 99.134 39.48L99.174 34.66H97.814V33C98.2406 33 98.6406 32.8667 99.014 32.6C99.4006 32.3333 99.7273 32.0067 99.994 31.62C100.261 31.2333 100.447 30.86 100.554 30.5H102.034L102.014 33H104.554V34.54L102.014 34.6L101.994 39.52C101.994 40.8133 102.394 41.46 103.194 41.46C103.834 41.46 104.441 41.06 105.014 40.26L105.974 41.16C105.347 42.08 104.721 42.6733 104.094 42.94C103.467 43.1933 102.854 43.32 102.254 43.32Z" fill="#343743"/>
<rect x="63" y="27" width="6" height="5" fill="#A2FCFF"/>
<path fill-rule="evenodd" clip-rule="evenodd" d="M67.1492 26.0079C70.1686 22.3767 70.6509 21.8465 76 16C67.935 16 67.6854 21.142 65.9111 21.142C64.2197 21.142 61.6405 14.2898 55 17.4722C59.6681 21.2619 60.4491 21.8159 64.8941 25.9961C65.7132 26.9464 66.6099 26.7052 67.1492 26.0079Z" fill="#343743"/>
</g>
<defs>
<clipPath id="clip0">
<path d="M0 0H114V48H0V0Z" fill="white"/>
</clipPath>
</defs>
</svg>
